# xmcd
#
# Track frame offsets: 
#        150
#        19072
#        36235
#        50350
#        63092
#        78480
#        91912
#        106635
#        118577
#        133992
#        169372
#
# Disc length: 2458 seconds
#
# Revision: 0
# Processed by: cddbd v1.4PL0 Copyright (c) Steve Scherf et al.
# Submitted via: ExactAudioCopy v0.90b3
#
DISCID=8a09980b
DTITLE=Blues Brothers - Music From the Soundtrack
DYEAR=1980
DGENRE=Blues
TTITLE0=She Caught the Katy
TTITLE1=Peter Gunn Theme
TTITLE2=Gimme Some Lovin
TTITLE3=Shake a Tail Feather
TTITLE4=Everybody Needs Somebody to Love
TTITLE5=The Old Landmark
TTITLE6=Think
TTITLE7=Theme From Rawhide
TTITLE8=Minnie the Moocher
TTITLE9=Sweet Home Chicago
TTITLE10=Jailhouse Rock
EXTD=
EXTT0=
EXTT1=
EXTT2=
EXTT3=
EXTT4=
EXTT5=
EXTT6=
EXTT7=
EXTT8=
EXTT9=
EXTT10=
PLAYORDER=
